<?xml version="1.0" ?>
<!-- Uploaded to: SVG Repo, www.svgrepo.com, Generator: SVG Repo Mixer Tools -->
<svg width="800px" height="800px" viewBox="0 0 512 512" version="1.1" xml:space="preserve" xmlns="http://www.w3.org/2000/svg" xmlns:xlink="http://www.w3.org/1999/xlink">
<style type="text/css">
	.st0{display:none;}
	.st1{display:inline;}
	.st2{fill:none;stroke:#B3B3B3;stroke-miterlimit:10;}
	.st3{fill:none;stroke:#ED1C24;stroke-miterlimit:10;}
	.st4{fill:#F9C04A;}
	.st5{fill:#FFFFFF;stroke:#000000;stroke-width:10;stroke-linecap:round;stroke-linejoin:round;stroke-miterlimit:10;}
	.st6{fill:#DEF6FC;}
	.st7{fill:#FFDA9F;}
	.st8{fill:#FFFFFF;}
	.st9{fill:#FF5751;}
	.st10{fill:#FF908A;}
	.st11{fill:#133260;}
	.st12{fill:#7782BB;}
	.st13{fill:#96A5D6;}
	.st14{fill:#FF5741;}
	.st15{fill:#43527A;}
	.st16{fill:#5E7296;}
	.st17{fill:none;stroke:#133260;stroke-width:9;stroke-linecap:round;stroke-linejoin:round;stroke-miterlimit:10;}
	.st18{fill:#83D689;}
	.st19{fill:#B5F4B8;}
	.st20{fill:#9BC5FF;}
	.st21{fill:#B8D8FF;}
	.st22{fill:#F24133;}
	.st23{fill:#589FFF;}
	.st24{fill:#7180BC;}
	.st25{fill:#93A3D8;}
	.st26{fill:#FF8103;}
	.st27{fill:#FF9D4D;}
	.st28{fill:#BC8D66;}
	.st29{fill:#CEA282;}
	.st30{fill:#FFDDA1;}
	.st31{fill:#FFF1DC;}
	.st32{fill:#7F6674;}
	.st33{fill:#937A89;}
	.st34{fill:#04398E;}
	.st35{fill:#A6D1FF;}
	.st36{fill:#EAA62D;}
	.st37{fill:#C5DFFF;}
	.st38{fill:#D6A47F;}
	.st39{fill:#99A4D6;}
</style>
<g class="st0" id="Layer_31">
<g class="st1">
<g>
<g>
<ellipse class="st2" cx="256" cy="256" rx="248.1" ry="248.3"/>
<path class="st2" d="M398.8,504.5H113.2c-18.8,0-34.1-15.3-34.1-34.1V41.6c0-18.8,15.3-34.1,34.1-34.1h285.5      c18.8,0,34.1,15.3,34.1,34.1v428.9C432.9,489.3,417.6,504.5,398.8,504.5z"/>
<path class="st2" d="M7.9,399.8V112.2c0-16.4,13.3-29.8,29.8-29.8h436.7c16.4,0,29.8,13.3,29.8,29.8v287.6      c0,16.4-13.3,29.8-29.8,29.8H37.6C21.2,429.6,7.9,416.2,7.9,399.8z"/>
<path class="st2" d="M440.4,469.9H71.6c-16.4,0-29.8-13.3-29.8-29.8V71.9c0-16.4,13.3-29.8,29.8-29.8h368.8      c16.4,0,29.8,13.3,29.8,29.8v368.2C470.2,456.5,456.8,469.9,440.4,469.9z"/>
</g>
<rect class="st3" height="497" transform="matrix(-1.836970e-16 1 -1 -1.836970e-16 512 5.684342e-14)" width="497" x="7.5" y="7.5"/>
</g>
</g>
</g>
<g id="Layer_32">
<g>
<g>
<path class="st23" d="M507,291.8c-19.8,0-35.8-16-35.8-35.8v0c0-19.8,16-35.8,35.8-35.8h0.4V104c0-14.9-12.1-27-27-27h-449     c-14.9,0-27,12.1-27,27v116.2H5c19.8,0,35.8,16,35.8,35.8v0c0,19.8-16,35.8-35.8,35.8H4.6V408c0,14.9,12.1,27,27,27h449     c14.9,0,27-12.1,27-27V291.8H507z"/>
<path class="st35" d="M30.9,408V308c0,0,36.2-14.2,36.2-52l0,0c0-39-36.2-52-36.2-52V104c0-14.9,12.1-27,27-27H31.5     c-14.9,0-27,12.1-27,27v116.2H5c19.8,0,35.8,16,35.8,35.8l0,0c0,19.8-16,35.8-35.8,35.8H4.6V408c0,14.9,12.1,27,27,27h26.3     C42.9,434.9,30.9,422.9,30.9,408z"/>
<path class="st20" d="M480.5,77.1h-92v357.9h92c14.9,0,27-12.1,27-27V291.8H507c-19.8,0-35.8-16-35.8-35.8v0     c0-19.8,16-35.8,35.8-35.8h0.4V104C507.4,89.1,495.4,77.1,480.5,77.1z"/>
<g>
<path class="st4" d="M222,146L222,146c5.3,8.3,16.1,11.2,24.9,6.7l0,0c12.4-6.4,27.3,2.2,27.9,16.1v0      c0.4,9.9,8.4,17.8,18.2,18.2h0c14,0.6,22.6,15.5,16.1,27.9v0c-4.6,8.8-1.7,19.6,6.7,24.9l0,0c11.8,7.5,11.8,24.7,0,32.2l0,0      c-8.3,5.3-11.2,16.1-6.7,24.9v0c6.4,12.4-2.2,27.3-16.1,27.9h0c-9.9,0.4-17.8,8.4-18.2,18.2v0c-0.6,14-15.5,22.6-27.9,16.1l0,0      c-8.8-4.6-19.6-1.7-24.9,6.7l0,0c-7.5,11.8-24.7,11.8-32.2,0l0,0c-5.3-8.3-16.1-11.2-24.9-6.7l0,0c-12.4,6.4-27.3-2.2-27.9-16.1      v0c-0.4-9.9-8.4-17.8-18.2-18.2h0c-14-0.6-22.6-15.5-16.1-27.9l0,0c4.6-8.8,1.7-19.6-6.7-24.9l0,0c-11.8-7.5-11.8-24.7,0-32.2      l0,0c8.3-5.3,11.2-16.1,6.7-24.9l0,0c-6.4-12.4,2.2-27.3,16.1-27.9h0c9.9-0.4,17.8-8.4,18.2-18.2v0c0.6-14,15.5-22.6,27.9-16.1      l0,0c8.8,4.6,19.6,1.7,24.9-6.7l0,0C197.3,134.3,214.5,134.3,222,146z"/>
<g>
<path class="st7" d="M192.4,369.2c4.7,4.8,11.4,6.5,17.6,5.2C203.9,373.1,198,371.3,192.4,369.2z"/>
<path class="st7" d="M113.5,254.9c0-42.1,21.3-79.2,53.7-101.2c-0.8-0.3-1.6-0.6-2.3-1h0c-12.4-6.4-27.3,2.2-27.9,16.1l0,0       c-0.4,9.9-8.4,17.8-18.2,18.2l0,0c-14,0.6-22.6,15.5-16.1,27.9c4.6,8.8,1.7,19.6-6.7,24.9l0,0c-11.8,7.5-11.8,24.7,0,32.2l0,0       c8.3,5.3,11.2,16.1,6.7,24.9c-6.4,12.4,2.2,27.3,16.1,27.9l0,0c9.9,0.4,17.8,8.4,18.2,18.2l0,0c0.6,14,15.5,22.6,27.9,16.1h0       c1.5-0.8,3-1.3,4.6-1.7C135.8,335.9,113.5,298,113.5,254.9z"/>
</g>
<g>
<path class="st11" d="M150.9,239.2v-23.1c0-13.3,8.6-18.2,19.9-18.2c11.1,0,19.9,4.9,19.9,18.2v23.1c0,13.3-8.8,18.2-19.9,18.2       C159.5,257.4,150.9,252.5,150.9,239.2z M181.4,216.1c0-6.8-4-10-10.6-10s-10.6,3.2-10.6,10v23.1c0,6.8,4,10,10.6,10       s10.6-3.2,10.6-10V216.1z M238.4,197c0,0.8-0.2,1.4-0.5,2.2l-57.6,113.6c-0.8,1.7-2.5,2.5-4.3,2.5c-2.8,0-4.9-2.2-4.9-4.6       c0-0.6,0.2-1.4,0.5-2l57.8-114.3c0.8-1.5,2.3-2.3,3.9-2.3C235.6,191.9,238.4,194.1,238.4,197z M217.9,292.8v-23.1       c0-13.3,8.6-18.2,19.9-18.2c11.1,0,19.9,4.9,19.9,18.2v23.1c0,13.3-8.8,18.2-19.9,18.2C226.6,311,217.9,306.1,217.9,292.8z        M248.4,269.7c0-6.8-4-10-10.6-10s-10.6,3.2-10.6,10v23.1c0,6.8,4,10,10.6,10s10.6-3.2,10.6-10V269.7z"/>
</g>
</g>
<g>
<path class="st11" d="M393.6,237.3c0-2.8-2.3-5.1-5.1-5.1c-2.8,0-5.1,2.3-5.1,5.1v39.5c0,2.8,2.3,5,5.1,5c2.8,0,5.1-2.3,5.1-5      V237.3z"/>
<path class="st11" d="M388.5,311.3c-2.8,0-5.1,2.3-5.1,5.1v39.5c0,2.8,2.3,5.1,5.1,5.1c2.8,0,5.1-2.3,5.1-5.1v-39.5      C393.6,313.5,391.3,311.3,388.5,311.3z"/>
<path class="st11" d="M393.6,158.2c0-2.8-2.3-5.1-5.1-5.1c-2.8,0-5.1,2.3-5.1,5.1v39.5c0,2.8,2.3,5.1,5.1,5.1      c2.8,0,5.1-2.3,5.1-5.1V158.2z"/>
</g>
</g>
<g>
<path class="st11" d="M205.9,379.3c-8.1,0-15.6-4.1-19.9-10.9c-4.1-6.4-12.2-8.6-19-5.1c-7.2,3.7-15.7,3.6-22.7-0.5     c-7-4.1-11.4-11.3-11.8-19.4c-0.3-7.6-6.3-13.6-13.9-13.9c-8.1-0.4-15.4-4.8-19.4-11.8c-4.1-7-4.2-15.5-0.5-22.7     c3.5-6.7,1.3-14.9-5.1-19c-6.8-4.4-10.9-11.8-10.9-19.9c0-8.1,4.1-15.6,10.9-19.9c6.4-4.1,8.6-12.2,5.1-19     c-3.7-7.2-3.6-15.7,0.5-22.7c4.1-7,11.3-11.4,19.4-11.8c7.6-0.3,13.6-6.3,13.9-13.9c0.4-8.1,4.8-15.4,11.8-19.4     c7-4.1,15.5-4.3,22.7-0.5c6.7,3.5,14.9,1.3,19-5.1c4.4-6.8,11.8-10.9,19.9-10.9c8.1,0,15.6,4.1,19.9,10.9l0,0     c4.1,6.4,12.2,8.6,19,5.1c7.2-3.7,15.7-3.6,22.7,0.5c7,4.1,11.4,11.3,11.8,19.4c0.3,7.6,6.3,13.6,13.9,13.9     c8.1,0.4,15.4,4.8,19.4,11.8c4.1,7,4.2,15.5,0.5,22.7c-3.5,6.7-1.3,14.9,5.1,19c6.8,4.4,10.9,11.8,10.9,19.9     c0,8.1-4.1,15.6-10.9,19.9c-6.4,4.1-8.6,12.2-5.1,19c3.7,7.2,3.6,15.7-0.5,22.7c-4.1,7-11.3,11.4-19.4,11.8     c-7.6,0.3-13.6,6.3-13.9,13.9c-0.4,8.1-4.8,15.4-11.8,19.4c-7,4.1-15.5,4.3-22.7,0.5c-6.7-3.5-14.9-1.3-19,5.1     C221.5,375.3,214,379.3,205.9,379.3z M173.8,352.5c7.8,0,15.4,3.9,19.9,11c2.7,4.2,7.3,6.7,12.3,6.7c5,0,9.6-2.5,12.3-6.7     c6.6-10.4,19.9-14,30.9-8.3c4.4,2.3,9.7,2.2,14-0.3c4.3-2.5,7-7,7.3-12c0.5-12.3,10.3-22,22.6-22.6c5-0.2,9.5-2.9,12-7.3     c2.5-4.3,2.6-9.6,0.3-14c-5.7-11-2.1-24.2,8.3-30.9c4.2-2.7,6.7-7.3,6.7-12.3c0-5-2.5-9.6-6.7-12.3c-10.4-6.6-14-19.9-8.3-30.9     c2.3-4.4,2.2-9.7-0.3-14c-2.5-4.3-7-7-12-7.3c-12.3-0.5-22-10.3-22.6-22.6c-0.2-5-2.9-9.5-7.3-12c-4.3-2.5-9.6-2.6-14-0.3     c-11,5.7-24.2,2.1-30.9-8.3l0,0c-2.7-4.2-7.3-6.7-12.3-6.7c-5,0-9.6,2.5-12.3,6.7c-6.6,10.4-19.9,14-30.9,8.3     c-4.4-2.3-9.7-2.2-14,0.3c-4.3,2.5-7,7-7.3,12c-0.5,12.3-10.3,22-22.6,22.6c-5,0.2-9.5,2.9-12,7.3c-2.5,4.3-2.6,9.6-0.3,14     c5.7,11,2.1,24.2-8.3,30.9c-4.2,2.7-6.7,7.3-6.7,12.3c0,5,2.5,9.6,6.7,12.3c10.4,6.6,14,19.9,8.3,30.9c-2.3,4.4-2.2,9.7,0.3,14     c2.5,4.3,7,7,12,7.3c12.3,0.5,22,10.3,22.6,22.6c0.2,5,2.9,9.5,7.3,12c4.3,2.5,9.6,2.6,14,0.3     C166.3,353.4,170.1,352.5,173.8,352.5z"/>
</g>
<path class="st11" d="M507,224.8h0.4c2.5,0,4.6-2,4.6-4.6V104c0-17.4-14.1-31.5-31.5-31.5h-449C14.1,72.5,0,86.6,0,104v116.2    c0,2.5,2,4.6,4.6,4.6H5c17.2,0,31.2,14,31.2,31.2s-14,31.2-31.2,31.2H4.6c-2.5,0-4.6,2-4.6,4.6V408c0,17.4,14.1,31.5,31.5,31.5    h449c17.4,0,31.5-14.1,31.5-31.5V291.8c0-2.5-2-4.6-4.6-4.6H507c-17.2,0-31.2-14-31.2-31.2S489.8,224.8,507,224.8z M466.7,256    c0,20.8,15.9,38,36.2,40.1V408c0,12.4-10,22.4-22.4,22.4h-86.9v-35c0-2.8-2.3-5.1-5.1-5.1c-2.8,0-5.1,2.3-5.1,5.1v35h-352    c-12.4,0-22.4-10-22.4-22.4V296.1c20.3-2.1,36.2-19.3,36.2-40.1s-15.9-38-36.2-40.1V104c0-12.4,10-22.4,22.4-22.4h352v37    c0,2.8,2.3,5.1,5.1,5.1c2.8,0,5.1-2.3,5.1-5.1v-37h86.9c12.4,0,22.4,10,22.4,22.4v111.9C482.6,218,466.7,235.2,466.7,256z"/>
</g>
</g>
</svg>